<svg xmlns="http://www.w3.org/2000/svg"
    viewBox="0 0 498 498"
    preserveAspectRatio="xMidYMid meet">
    <g transform="translate(0, 180) scale(0.1, -0.1)" fill="#d44127" stroke="none">
    <path d="M231 1630 c-46 -11 -82 -40 -104 -81 -16 -32 -17 -79 -15 -661 3 -619 3 -627 24 -655 12 -15 36 -37 55 -48 34 -20 52 -20 2289 -20 2237 0 2255 0 2289 20 19 11 43 33 55 48 21 28 21 34 21 667 0 633 0 639 -21 667 -12 15 -36 37 -55 48 -34 20 -53 20 -2269 22 -1229 0 -2250 -3 -2269 -7z m4516 -69 c12 -8 26 -26 32 -38 15 -33 15 -1213 0 -1246 -25 -56 134 -52 -2287 -55 -2445 -2 -2283 -6 -2311 54 -16 35 -16 1216 0 1247 13 23 32 38 64 49 11 3 1023 5 2250 5 1927 -2 2233 -4 2252 -16z"/>
    <path d="M695 1278 c-44 -16 -93 -55 -110 -88 -19 -37 -19 -113 0 -151 32 -60 90 -89 237 -119 79 -16 118 -54 118 -116 0 -54 -28 -87 -86 -103 -86 -24 -153 -6 -211 56 -34 38 -46 45 -66 39 -86 -21 23 -150 150 -176 115 -24 233 17 280 97 21 37 25 53 21 102 -8 106 -72 161 -213 182 -45 7 -89 20 -108 33 -102 69 -50 176 85 176 69 0 101 -14 145 -65 34 -38 58 -42 77 -12 15 25 -19 82 -73 121 -39 28 -50 31 -129 33 -48 1 -100 -3 -117 -9z"/>
    <path d="M3387 1278 c-24 -19 -269 -607 -261 -630 6 -22 51 -35 66 -20 6 6 23 39 37 74 l27 63 152 3 152 3 20 -48 c34 -84 44 -98 69 -98 13 0 29 9 37 20 11 18 -2 54 -110 315 -68 162 -131 303 -140 313 -19 20 -27 21 -49 5z m82 -280 c29 -73 55 -139 58 -145 4 -10 -23 -13 -117 -13 -112 0 -122 1 -116 18 31 82 111 272 116 272 4 0 30 -60 59 -132z"/>
    <path d="M1187 1224 c-4 -4 -7 -40 -7 -80 l0 -73 -31 -3 c-63 -6 -67 -68 -4 -68 l35 0 0 -127 c0 -151 15 -195 79 -231 42 -24 100 -29 119 -10 32 32 3 78 -51 78 -13 0 -32 9 -43 21 -16 18 -19 37 -19 143 l0 121 47 3 c55 4 75 21 58 51 -9 17 -20 21 -60 21 l-49 0 -3 78 -3 77 -30 3 c-17 2 -34 0 -38 -4z"/>
    <path d="M4227 1224 c-4 -4 -7 -40 -7 -80 l0 -73 -31 -3 c-63 -6 -67 -68 -4 -68 l35 0 0 -127 c0 -151 15 -195 79 -231 42 -24 100 -29 119 -10 32 32 3 78 -51 78 -13 0 -32 9 -43 21 -16 18 -19 37 -19 143 l0 121 47 3 c55 4 75 21 58 51 -9 17 -20 21 -60 21 l-49 0 -3 78 -3 77 -30 3 c-17 2 -34 0 -38 -4z"/>
    <path d="M1638 1076 c-104 -38 -158 -117 -158 -230 0 -58 33 -138 71 -173 77 -71 209 -71 287 0 l22 20 0 -24 c0 -31 17 -49 47 -49 34 0 43 29 43 147 0 123 -10 171 -48 226 -53 78 -176 117 -264 83z m168 -97 c38 -36 54 -72 54 -126 0 -68 -26 -113 -83 -141 -54 -28 -109 -24 -153 11 -31 24 -63 90 -64 129 0 48 31 108 69 134 49 34 137 31 177 -7z"/>
    <path d="M2209 1077 c-97 -37 -149 -116 -149 -226 0 -78 22 -131 71 -178 43 -40 77 -53 141 -53 59 0 109 21 143 62 l25 30 0 -42 c0 -54 -20 -100 -59 -133 -60 -50 -149 -44 -216 14 -66 58 -121 7 -57 -54 90 -86 253 -90 346 -8 44 39 67 109 73 220 10 198 -20 293 -112 347 -55 32 -150 42 -206 21z m162 -90 c92 -61 91 -217 -2 -271 -45 -27 -120 -26 -156 0 -46 35 -66 70 -70 126 -7 97 54 168 147 168 32 0 58 -7 81 -23z"/>
    <path d="M2775 1075 c-142 -55 -190 -255 -89 -373 63 -74 163 -100 266 -71 50 13 93 51 85 73 -11 28 -35 29 -89 6 -61 -26 -125 -23 -167 7 -26 20 -71 79 -71 94 0 5 76 9 168 9 117 0 172 4 180 12 38 38 -10 179 -77 223 -50 34 -145 43 -206 20z m158 -77 c22 -12 57 -67 57 -90 0 -16 -13 -18 -141 -18 l-140 0 7 23 c5 18 41 77 47 77 1 0 20 7 42 15 40 15 93 12 128 -7z"/>
    <path d="M3796 1068 c-13 -18 -16 -57 -16 -216 0 -114 4 -201 10 -213 12 -21 50 -25 68 -7 8 8 12 57 12 155 0 162 8 192 61 214 18 7 62 13 97 14 51 0 67 4 76 18 17 29 -24 57 -84 57 -57 0 -96 -13 -127 -42 l-23 -21 0 21 c0 20 -26 42 -49 42 -5 0 -17 -10 -25 -22z"/>
    </g>
</svg>